<?xml version="1.0" encoding="UTF-8" standalone="no"?><!DOCTYPE svg PUBLIC "-//W3C//DTD SVG 1.1//EN" "http://www.w3.org/Graphics/SVG/1.1/DTD/svg11.dtd"><svg width="100%" height="100%" viewBox="0 0 100 100" version="1.1" xmlns="http://www.w3.org/2000/svg" xmlns:xlink="http://www.w3.org/1999/xlink" xml:space="preserve" xmlns:serif="http://www.serif.com/" style="fill-rule:evenodd;clip-rule:evenodd;stroke-linejoin:round;stroke-miterlimit:2;"><path d="M50,70c11.046,0 20,-8.954 20,-20c0,-11.046 -8.954,-20 -20,-20l0,40Z" style="fill:#fff;fill-rule:nonzero;"/><path d="M50,0c-27.614,0 -50,22.386 -50,50c0,27.614 22.386,50 50,50c27.614,0 50,-22.386 50,-50c0,-27.614 -22.386,-50 -50,-50Zm0,10l0,20c-11.046,0 -20,8.954 -20,20c0,11.046 8.954,20 20,20l0,20c22.091,0 40,-17.909 40,-40c0,-22.091 -17.909,-40 -40,-40Z" style="fill:#fff;"/></svg>